# Blender 4.5.3 LTS
# www.blender.org
mtllib diamond.mtl
o Diamond
v -0.237426 0.249021 -0.010618
v -0.196179 0.260805 -0.109496
v 0.040013 0.272383 -0.206643
v 0.139592 0.267502 -0.165686
v 0.237426 0.239550 0.068847
v 0.196179 0.227765 0.167725
v -0.040013 0.216187 0.264872
v -0.139592 0.221069 0.223915
v -0.000000 -0.000000 -0.000000
v -0.000000 -0.000000 -0.000000
v -0.000000 -0.000000 -0.000000
v -0.000000 -0.000000 -0.000000
v -0.000000 -0.000000 -0.000000
v -0.000000 -0.000000 -0.000000
v -0.000000 -0.000000 -0.000000
v -0.000000 -0.000000 -0.000000
v -0.152002 0.306476 -0.026880
v -0.152002 0.306476 -0.026880
v -0.062961 0.281036 0.186572
v -0.062961 0.281036 0.186572
v 0.152001 0.291574 0.098157
v 0.152001 0.291574 0.098157
v 0.062961 0.317013 -0.115295
v 0.062961 0.317013 -0.115295
v -0.237426 0.249021 -0.010618
v -0.237426 0.239550 0.068847
v -0.219975 0.270894 0.032286
v -0.155546 0.289302 -0.122167
v -0.139592 0.267502 -0.165686
v -0.196179 0.260805 -0.109496
v 0.040013 0.272383 -0.206643
v -0.040013 0.272383 -0.206643
v 0.000000 0.296927 -0.186144
v 0.155546 0.289302 -0.122167
v 0.196179 0.260805 -0.109496
v 0.139592 0.267502 -0.165686
v 0.237426 0.239550 0.068847
v 0.237426 0.249021 -0.010618
v 0.219975 0.270894 0.032286
v 0.155546 0.252486 0.186739
v 0.139592 0.221069 0.223915
v 0.196179 0.227765 0.167725
v -0.040013 0.216187 0.264872
v 0.040013 0.216187 0.264872
v -0.000000 0.244861 0.250715
v -0.155546 0.252486 0.186739
v -0.196179 0.227765 0.167725
v -0.139592 0.221069 0.223915
v -0.062961 0.317013 -0.115295
v -0.155546 0.289302 -0.122167
v -0.219975 0.270894 0.032286
v -0.152002 0.291574 0.098157
v -0.152002 0.291574 0.098157
v -0.155546 0.252486 0.186739
v -0.000000 0.244861 0.250715
v 0.062961 0.281036 0.186572
v 0.062961 0.281036 0.186572
v 0.155546 0.252486 0.186739
v 0.219975 0.270894 0.032286
v 0.152002 0.306476 -0.026880
v 0.152002 0.306476 -0.026880
v 0.155546 0.289302 -0.122167
v 0.000000 0.296927 -0.186144
v -0.062961 0.317013 -0.115295
v 0.000000 -0.000000 -0.000000
v -0.000000 -0.000000 -0.000000
v -0.000000 -0.000000 -0.000000
v -0.000000 -0.000000 -0.000000
v -0.000000 -0.000000 -0.000000
v -0.000000 -0.000000 -0.000000
v -0.000000 -0.000000 -0.000000
v -0.000000 -0.000000 -0.000000
v 0.000000 -0.000000 -0.000000
v -0.152610 0.146929 0.017483
v -0.237426 0.239550 0.068847
v -0.139592 0.267502 -0.165686
v -0.107838 0.159624 -0.089038
v -0.000000 0.164972 -0.133903
v -0.040013 0.272383 -0.206643
v 0.196179 0.260805 -0.109496
v 0.108979 0.159759 -0.090165
v 0.155364 0.146929 0.017483
v 0.237426 0.249021 -0.010618
v 0.139592 0.221069 0.223915
v 0.107771 0.134242 0.123938
v -0.000000 0.129051 0.167487
v 0.040013 0.216187 0.264872
v -0.196179 0.227765 0.167725
v -0.106826 0.134353 0.123004
v 0.030175 0.088502 -0.061599
v 0.108979 0.159759 -0.090165
v 0.074094 0.083579 -0.020297
v -0.000000 0.164972 -0.133903
v 0.030175 0.088502 -0.061599
v -0.070199 0.083445 -0.019171
v -0.107838 0.159624 -0.089038
v -0.032676 0.088214 -0.059180
v -0.069188 0.076728 0.037190
v -0.152610 0.146929 0.017483
v -0.070199 0.083445 -0.019171
v -0.028023 0.071970 0.077110
v -0.106826 0.134353 0.123004
v -0.069188 0.076728 0.037190
v 0.028967 0.071859 0.078043
v -0.000000 0.129051 0.167487
v -0.028023 0.071970 0.077110
v 0.072886 0.076617 0.038123
v 0.107771 0.134242 0.123938
v 0.028967 0.071859 0.078043
v 0.074094 0.083579 -0.020297
v 0.155364 0.146929 0.017483
v 0.072886 0.076617 0.038123
vn -0.0729 -0.9800 -0.1850
vn -0.0000 0.9930 0.1183
vn -0.0000 -0.9580 -0.2869
vn -0.1903 -0.9755 -0.1104
vn -0.6645 -0.6455 -0.3764
vn -0.6749 -0.6511 -0.3473
vn 0.1532 -0.8662 -0.4756
vn -1.0000 0.0001 -0.0000
vn 0.2733 -0.6040 -0.7486
vn 0.2747 -0.6048 -0.7475
vn 0.6395 -0.6517 -0.4078
vn 0.1673 -0.6331 -0.7558
vn -0.0000 -0.6534 -0.7570
vn 0.5131 -0.5775 -0.6351
vn -0.0000 -0.9930 -0.1183
vn 0.9701 -0.2409 -0.0287
vn 0.3739 -0.8897 -0.2620
vn -1.0000 -0.0000 -0.0000
vn 0.6722 -0.6447 -0.3641
vn 0.6732 -0.6449 -0.3619
vn 0.6751 -0.7193 0.1640
vn 0.7789 -0.5867 -0.2218
vn 0.8079 -0.5532 -0.2031
vn 0.3656 -0.9298 0.0417
vn -1.0000 -0.0000 -0.0001
vn 0.6665 -0.7160 0.2075
vn 0.6678 -0.7164 0.2023
vn 0.3084 -0.7725 0.5551
vn -0.3186 -0.3622 0.8760
vn -0.3510 -0.3751 0.8580
vn 0.1505 -0.9560 0.2519
vn -0.5700 -0.7366 0.3640
vn 0.2733 -0.7690 0.5779
vn -0.6957 -0.6511 0.3033
vn 0.2950 -0.7588 0.5807
vn 0.2466 -0.7568 0.6053
vn -0.1501 -0.9563 0.2509
vn -1.0000 -0.0000 0.0001
vn 0.3494 -0.2311 0.9080
vn -0.2755 -0.7708 0.5744
vn 0.0013 -0.4406 0.8977
vn -0.2487 -0.7579 0.6031
vn -0.3345 -0.7465 0.5752
vn -0.0003 -0.9930 -0.1183
vn -0.0000 -0.9994 0.0358
vn -0.4889 -0.7678 0.4141
vn -0.6892 -0.7042 0.1705
vn -0.6579 -0.7164 0.2322
vn -0.0000 0.9930 0.1184
vn -0.1502 0.9817 0.1170
vn -0.4472 0.8881 0.1059
vn -0.5994 0.7850 -0.1565
vn -0.5589 0.8152 -0.1518
vn -0.5249 0.8408 -0.1320
vn -0.5249 0.8409 -0.1320
vn -0.5950 0.7946 -0.1211
vn -0.5994 0.7263 0.3366
vn -0.5700 0.7599 0.3125
vn -0.3847 0.9166 0.1092
vn -0.5722 0.7373 0.3590
vn -0.2483 0.6847 0.6852
vn -0.2472 0.7198 0.6486
vn -0.0000 -0.0058 -1.0000
vn -0.2143 0.6988 0.6825
vn 0.2483 0.6847 0.6852
vn 0.2204 0.7185 0.6597
vn -0.0000 0.8710 0.4913
vn -0.0000 0.8711 0.4912
vn -0.0000 0.8709 0.4914
vn 0.2692 0.7015 0.6599
vn 0.5994 0.7263 0.3366
vn 0.5589 0.7567 0.3392
vn 0.5950 0.7438 0.3044
vn 0.5994 0.7850 -0.1565
vn 0.5700 0.8121 -0.1252
vn 0.5722 0.8011 -0.1757
vn 0.2483 0.8266 -0.5051
vn -1.0000 -0.0001 0.0001
vn 0.2472 0.8521 -0.4613
vn 0.2143 0.8396 -0.4991
vn -0.2483 0.8266 -0.5051
vn -0.2204 0.8534 -0.4723
vn -0.2692 0.8369 -0.4765
vn -0.8380 0.5419 0.0646
vn -0.5925 0.6120 -0.5238
vn -0.0000 0.6410 -0.7675
vn 0.5925 0.6120 -0.5238
vn 0.8380 0.5419 0.0646
vn 0.5925 0.4717 0.6530
vn -0.0000 0.4427 0.8967
vn -0.5925 0.4717 0.6530
vn -0.2720 0.9487 -0.1609
vn -0.2720 0.8844 0.3794
vn -0.0000 0.8710 0.4912
vn 0.2720 0.8844 0.3794
vn 0.3847 0.9166 0.1092
vn 0.2720 0.9487 -0.1609
vn -0.0000 0.9621 -0.2728
vn 0.0505 -0.9839 -0.1713
vn -0.0000 -0.9617 -0.2742
vn -0.0000 -0.5713 -0.8208
vn -0.3604 -0.9028 -0.2346
vn -0.6606 -0.7241 0.1980
vn -0.3661 -0.8935 -0.2599
vn -0.3659 -0.8938 -0.2592
vn -0.9378 -0.2073 0.2785
vn -0.3137 0.5924 0.7421
vn -0.3635 -0.9306 0.0434
vn -0.3671 -0.9292 0.0424
vn -0.0128 -0.7920 0.6103
vn 0.1933 -0.6121 0.7668
vn 0.1174 -0.1721 -0.9781
vn -0.7563 -0.6496 -0.0774
vn -0.5335 -0.5886 -0.6074
vn -0.0000 -0.5607 -0.8280
vn 0.5378 -0.5810 -0.6109
vn 0.7669 -0.6373 -0.0760
vn 0.5331 -0.7154 0.4516
vn -0.0000 -0.7452 0.6668
vn -0.5295 -0.7207 0.4474
vn -0.2769 -0.6040 -0.7474
vn -0.9259 -0.3752 -0.0447
vn -0.9258 -0.3752 -0.0447
vn -0.0000 0.5712 0.8208
vn -0.0001 0.5712 0.8208
vn -0.2940 0.7937 -0.5325
vn -0.0292 -0.5643 -0.8251
vn -0.0246 -0.6919 -0.7215
vn -0.2765 -0.6073 -0.7448
vn -0.2764 -0.6074 -0.7448
vn -0.2831 -0.6090 -0.7409
vn -0.2832 -0.6090 -0.7409
vn -0.2853 -0.6095 -0.7397
vn -0.0000 -0.4523 -0.8918
vn -0.0000 -0.4524 -0.8918
vt 31.415924 15.000000
vt 31.415928 15.000000
vt 31.415926 15.000000
vt 37.770626 10.144140
vt 37.770626 10.144142
vt 6.104229 0.000000
vt 6.104229 -0.000000
vt 17.119282 5.898473
vt 1.749758 0.000001
vt 17.119280 5.898472
vt 22.285742 10.010623
vt 12.460315 5.949361
vt 1.749755 -0.000000
vt 12.460322 5.949364
vt 13.958211 0.000000
vt 13.958210 -0.000000
vt 19.638107 3.753009
vt 9.603739 0.000000
vt 19.638105 3.753008
vt 22.571510 7.814270
vt 22.571507 7.814269
vt 9.603739 0.000000
vt 21.812193 0.000000
vt 21.812195 -0.000000
vt 26.703196 5.999344
vt 17.457722 0.000001
vt 26.703196 5.999345
vt 25.263405 7.915143
vt 17.457720 0.000000
vt 29.666176 0.000000
vt 29.666176 -0.000000
vt 31.415926 6.031958
vt 25.311705 0.000000
vt 31.415928 6.031956
vt 30.149204 10.194090
vt 30.149206 10.194090
vt 25.311703 0.000000
vt 37.520157 0.000000
vt 37.520161 0.000000
vt 36.087345 6.078254
vt 33.165680 0.000001
vt 36.087345 6.078253
vt 32.641335 10.272999
vt 32.641331 10.272999
vt 33.165680 -0.000001
vt 31.415934 15.000002
vt 35.187073 10.228647
vt 3.926994 0.000000
vt 3.926992 0.000000
vt 27.488943 0.000000
vt 27.488937 0.000000
vt 19.634956 0.000000
vt 11.780973 0.000000
vt 3.926993 0.000000
vt 3.926993 0.000000
vt -3.926990 0.000000
vt -3.926989 0.000000
vt -11.780972 0.000000
vt -11.780972 0.000000
vt -19.634954 0.000000
vt -19.634956 0.000000
vt -9.603737 0.000000
vt -13.958208 0.000000
vt -15.707965 0.000000
vt -7.853982 0.000000
vt -17.457720 0.000000
vt -21.812191 0.000000
vt -23.561947 0.000000
vt -11.313660 0.000000
vt 31.415930 0.000000
vt 23.561949 0.000000
vt 15.707966 0.000000
vt 15.707965 0.000000
vt 7.853982 0.000000
vt 7.853982 0.000000
vt 0.000002 0.000000
vt 0.000002 0.000000
vt -1.749753 0.000000
vt -6.104227 0.000000
vt 47.120216 0.222755
vt 47.127575 -0.222755
vt 47.127575 -0.222755
vt 47.572067 0.000000
vt -7.850303 0.222755
vt -8.301909 0.014801
vt -7.857661 -0.222755
vt -7.857661 -0.222755
vt -7.850302 0.222755
vt -0.003677 0.222755
vt -0.003677 0.222755
vt 0.003682 -0.222755
vt 0.003682 -0.222755
vt 0.448174 0.000000
vt -23.558268 0.222755
vt -24.009874 0.014801
vt -23.565626 -0.222755
vt -23.565622 -0.222755
vt -23.558268 0.222755
vt 40.853691 5.987606
vt 40.853683 5.987607
vt 48.873653 0.000002
vt 48.873650 0.000001
vt 53.228123 0.000001
vt 53.228119 0.000001
vt 45.562908 5.993748
vt 45.562912 5.993747
vt 41.019669 0.000000
vt 41.019665 -0.000000
vt 45.374138 0.000001
vt 45.374142 0.000002
vt 31.415936 15.000004
vt 24.254009 8.160873
vt 24.254013 8.160874
vt 44.569653 2.613548
vt 45.097271 1.347872
vt 46.199970 1.837212
vt -7.937013 0.978655
vt -8.361773 -0.776374
vt -7.231501 0.000000
vt 3.217244 2.613316
vt 3.745512 1.347797
vt 4.847849 1.837212
vt -23.646580 0.978317
vt -24.069103 -0.776889
vt -22.939466 0.000000
vt 40.261921 10.094110
vt 31.415932 15.000002
s 1
usemtl Crystal
f 68/1/1 10/2/2 9/2/3
f 9/2/3 69/3/4 100/4/5
f 68/1/1 9/2/3 100/4/5
f 95/5/6 68/1/1 100/4/5
f 4/6/7 36/7/8 81/8/9
f 3/9/10 4/6/7 81/8/9
f 81/8/9 91/10/11 90/11/12
f 90/11/12 94/11/13 93/12/14
f 81/8/9 90/11/12 93/12/14
f 3/9/10 81/8/9 93/12/14
f 31/13/15 3/9/10 93/12/14
f 78/14/16 31/13/15 93/12/14
f 38/15/17 83/16/18 82/17/19
f 35/18/20 38/15/17 82/17/19
f 82/17/19 111/19/21 110/20/22
f 110/20/22 92/21/23 91/10/11
f 82/17/19 110/20/22 91/10/11
f 35/18/20 82/17/19 91/10/11
f 80/22/15 35/18/20 91/10/11
f 81/8/9 80/22/15 91/10/11
f 6/23/24 42/24/25 85/25/26
f 5/26/27 6/23/24 85/25/26
f 85/25/26 108/27/28 107/28/29
f 107/28/29 112/28/30 111/19/21
f 85/25/26 107/28/29 111/19/21
f 5/26/27 85/25/26 111/19/21
f 37/29/15 5/26/27 111/19/21
f 82/17/19 37/29/15 111/19/21
f 44/30/31 87/31/18 86/32/32
f 41/33/33 44/30/31 86/32/32
f 86/32/32 105/34/34 104/35/35
f 104/35/35 109/36/36 108/27/28
f 86/32/32 104/35/35 108/27/28
f 41/33/33 86/32/32 108/27/28
f 84/37/15 41/33/33 108/27/28
f 85/25/26 84/37/15 108/27/28
f 8/38/37 48/39/38 89/40/39
f 7/41/40 8/38/37 89/40/39
f 89/40/39 102/42/41 101/43/42
f 101/43/42 106/44/43 105/34/34
f 89/40/39 101/43/42 105/34/34
f 7/41/40 89/40/39 105/34/34
f 43/45/44 7/41/40 105/34/34
f 86/32/32 43/45/44 105/34/34
f 69/3/4 9/2/3 16/2/45
f 16/2/45 70/46/46 103/47/47
f 69/3/4 16/2/45 103/47/47
f 98/47/48 69/3/4 103/47/47
f 19/48/2 20/49/25 56/50/2
f 56/50/2 57/51/49 21/52/2
f 21/52/2 22/52/18 60/53/2
f 56/50/2 21/52/2 60/53/2
f 60/53/2 61/53/18 23/54/2
f 23/54/2 24/55/18 64/56/2
f 60/53/2 23/54/2 64/56/2
f 64/56/2 49/57/18 17/58/50
f 17/58/50 18/59/51 52/60/2
f 64/56/2 17/58/50 52/60/2
f 60/53/2 64/56/2 52/60/2
f 56/50/2 60/53/2 52/60/2
f 19/48/2 56/50/2 52/60/2
f 53/61/49 19/48/2 52/60/2
f 10/2/15 11/2/2 12/2/2
f 12/2/2 13/2/2 14/2/2
f 14/2/2 15/2/2 16/2/2
f 12/2/2 14/2/2 16/2/2
f 10/2/15 12/2/2 16/2/2
f 9/2/2 10/2/15 16/2/2
f 2/62/52 1/63/52 27/64/52
f 27/64/38 51/64/18 18/59/25
f 2/62/53 27/64/53 18/59/53
f 18/59/54 17/58/54 50/65/55
f 2/62/56 18/59/56 50/65/56
f 28/65/38 2/62/25 50/65/18
f 26/66/57 47/67/57 46/68/57
f 46/68/18 54/68/18 53/61/18
f 26/66/58 46/68/58 53/61/58
f 53/61/59 52/60/59 51/64/59
f 26/66/60 53/61/60 51/64/60
f 27/64/38 26/66/38 51/64/18
f 8/69/61 7/41/61 45/70/61
f 45/70/18 55/70/18 20/49/18
f 8/69/62 45/70/62 20/49/62
f 20/49/63 19/48/63 54/68/63
f 8/69/64 20/49/64 54/68/64
f 46/68/18 8/69/25 54/68/18
f 44/30/65 41/33/65 40/71/65
f 40/71/38 58/71/18 57/51/18
f 44/30/66 40/71/66 57/51/66
f 57/51/67 56/50/68 55/70/69
f 44/30/70 57/51/70 55/70/70
f 45/70/18 44/30/38 55/70/18
f 6/23/71 5/26/71 39/72/71
f 39/72/18 59/73/25 22/52/18
f 6/23/72 39/72/72 22/52/72
f 22/52/15 21/52/18 58/71/18
f 6/23/73 22/52/73 58/71/73
f 40/71/38 6/23/18 58/71/18
f 38/15/74 35/18/74 34/74/74
f 34/74/25 62/75/18 61/53/25
f 38/15/75 34/74/75 61/53/75
f 61/53/15 60/53/18 59/73/38
f 38/15/76 61/53/76 59/73/76
f 39/72/18 38/15/18 59/73/25
f 4/6/77 3/9/77 33/76/77
f 33/76/18 63/77/18 24/55/78
f 4/6/79 33/76/79 24/55/79
f 24/55/15 23/54/38 62/75/38
f 4/6/80 24/55/80 62/75/80
f 34/74/25 4/6/18 62/75/18
f 32/78/81 29/79/81 28/65/81
f 28/65/38 50/65/18 49/57/25
f 32/78/82 28/65/82 49/57/82
f 49/57/15 64/56/25 63/77/25
f 32/78/83 49/57/83 63/77/83
f 33/76/18 32/78/18 63/77/18
f 1/80/2 25/80/18 75/81/2
f 1/80/2 75/81/2 26/82/18
f 1/80/84 26/82/84 27/83/84
f 2/84/85 28/85/85 29/86/85
f 29/86/18 76/87/25 30/88/2
f 2/84/25 29/86/18 30/88/2
f 3/89/2 31/90/18 79/91/18
f 3/89/2 79/91/18 32/92/25
f 3/89/86 32/92/86 33/93/86
f 4/6/87 34/74/87 35/18/87
f 35/18/2 80/22/18 36/7/2
f 4/6/18 35/18/2 36/7/2
f 5/26/2 37/29/18 83/16/2
f 5/26/2 83/16/2 38/15/18
f 5/26/88 38/15/88 39/72/88
f 6/23/89 40/71/89 41/33/89
f 41/33/2 84/37/25 42/24/2
f 6/23/18 41/33/2 42/24/2
f 7/41/2 43/45/18 87/31/2
f 7/41/2 87/31/2 44/30/18
f 7/41/90 44/30/90 45/70/90
f 8/94/91 46/95/91 47/96/91
f 47/96/2 88/97/18 48/98/2
f 8/94/18 47/96/2 48/98/2
f 17/58/92 49/57/92 50/65/92
f 18/59/59 51/64/59 52/60/59
f 19/48/93 53/61/93 54/68/93
f 20/49/94 55/70/69 56/50/68
f 21/52/95 57/51/95 58/71/95
f 22/52/96 59/73/96 60/53/96
f 23/54/97 61/53/97 62/75/97
f 24/55/98 63/77/98 64/56/98
f 66/2/99 12/2/100 11/2/101
f 66/2/99 11/2/101 94/11/13
f 90/11/12 66/2/99 94/11/13
f 99/99/102 74/100/103 25/101/104
f 25/101/104 1/102/18 2/103/105
f 2/103/105 30/104/18 77/105/106
f 25/101/104 2/103/105 77/105/106
f 77/105/106 96/106/107 95/5/6
f 25/101/104 77/105/106 95/5/6
f 99/99/102 25/101/104 95/5/6
f 100/4/5 99/99/102 95/5/6
f 102/42/41 89/40/39 88/107/108
f 88/107/108 47/108/25 26/109/109
f 26/109/109 75/110/18 74/100/103
f 88/107/108 26/109/109 74/100/103
f 74/100/103 99/99/102 98/47/48
f 88/107/108 74/100/103 98/47/48
f 102/42/41 88/107/108 98/47/48
f 103/47/47 102/42/41 98/47/48
f 70/46/46 16/2/45 15/2/2
f 15/2/2 71/2/110 106/44/43
f 70/46/46 15/2/2 106/44/43
f 101/43/42 70/46/46 106/44/43
f 71/2/110 15/2/2 14/2/2
f 14/2/2 72/111/111 109/36/36
f 71/2/110 14/2/2 109/36/36
f 104/35/35 71/2/110 109/36/36
f 72/111/111 14/2/2 13/2/2
f 72/111/111 13/2/2 65/112/2
f 65/112/2 73/113/112 112/28/30
f 72/111/111 65/112/2 112/28/30
f 107/28/29 72/111/111 112/28/30
f 73/113/112 65/112/2 13/2/2
f 73/113/112 13/2/2 12/2/100
f 12/2/100 66/2/99 92/21/23
f 73/113/112 12/2/100 92/21/23
f 110/20/22 73/113/112 92/21/23
f 25/114/113 74/115/113 75/116/113
f 30/117/114 76/118/114 77/119/114
f 31/120/115 78/121/115 79/122/115
f 36/7/116 80/22/116 81/8/116
f 37/29/117 82/17/117 83/16/117
f 42/24/118 84/37/118 85/25/118
f 43/45/119 86/32/119 87/31/119
f 48/123/120 88/124/120 89/125/120
f 66/2/99 90/11/12 91/10/11
f 91/10/11 92/21/23 66/2/99
f 68/1/1 95/5/6 96/106/107
f 96/106/107 97/126/121 68/1/1
f 69/3/4 98/47/48 99/99/102
f 99/99/102 100/4/5 69/3/4
f 70/46/46 101/43/42 102/42/41
f 102/42/41 103/47/47 70/46/46
f 71/2/110 104/35/35 105/34/34
f 105/34/34 106/44/43 71/2/110
f 72/111/111 107/28/29 108/27/28
f 108/27/28 109/36/36 72/111/111
f 73/113/112 110/20/22 111/19/21
f 111/19/21 112/28/30 73/113/112
f 77/105/18 76/118/25 29/86/18
f 29/86/38 32/78/25 79/91/18
f 79/91/122 78/121/123 93/12/123
f 94/11/124 67/127/2 11/2/125
f 10/2/15 68/1/18 97/126/126
f 11/2/2 10/2/15 97/126/126
f 94/11/127 11/2/127 97/126/127
f 93/12/128 94/11/128 97/126/128
f 79/91/129 93/12/130 97/126/131
f 29/86/132 79/91/129 97/126/131
f 77/105/133 29/86/132 97/126/131
f 77/105/134 97/126/135 96/106/134
